<svg id="Capa_1" enable-background="new 0 0 501 501" height="512" viewBox="0 0 501 501" width="512" xmlns="http://www.w3.org/2000/svg"><g><path d="m412.784 438.772c-42.485 35.419-97.146 56.728-156.784 56.728-135.31 0-245-109.69-245-244.999 0-135.557 110.934-245.803 246.489-244.997 110.805.66 204.173 74.876 233.745 176.286-43.326 0-78.449 35.123-78.449 78.449v178.533z" fill="#172a7d"/><path d="m480.325 310.952c-36.559 58.008-101.192 96.548-174.825 96.548-114.047 0-206.5-92.453-206.5-206.5 0-89.909 57.46-166.398 137.661-194.748 6.381-.498 12.83-.752 19.339-.752 111.457 0 205.53 74.426 235.234 176.29 6.357 21.8-2.828 116.34-10.909 129.162z" fill="#1f3595"/><path d="m62.741 353.25c0-8.284 6.716-15 15-15 5.552 0 10.399 3.017 12.993 7.5h162.007v15h-162.007c-2.594 4.483-7.441 7.5-12.993 7.5-8.284 0-15-6.716-15-15zm95.252 53.75h162.007v-15h-162.007c-2.594-4.483-7.441-7.5-12.993-7.5-8.284 0-15 6.716-15 15s6.716 15 15 15c5.552 0 10.399-3.017 12.993-7.5z" fill="#008a80"/><path d="m332.609 65.164c4.082 0 7.391 3.309 7.391 7.391v54.262c0 8.164-6.618 14.783-14.783 14.783h-310.434c-8.165-.001-14.783-6.619-14.783-14.783v-83.827c0-4.082 3.309-7.391 7.391-7.391h92.099c4.622 0 8.758 2.867 10.381 7.194l8.389 22.371z" fill="#fd2aa7"/><path d="m22.174 141.599h-7.391c-8.165 0-14.783-6.618-14.783-14.782v-83.827c0-4.082 3.309-7.391 7.391-7.391h14.782v106z" fill="#f02399"/><path d="m89 64.644h-50c-2.761 0-5-2.239-5-5v-5c0-2.761 2.239-5 5-5h50c2.761 0 5 2.239 5 5v5c0 2.761-2.239 5-5 5z" fill="#d80d80"/><path d="m340 127.423h-340v-35.28h340z" fill="#49b4fa"/><path d="m22.174 127.423h-22.174v-35.28h22.174z" fill="#0191f8"/><path d="m34 109.923c0 4.143-3.358 7.5-7.5 7.5s-7.5-3.357-7.5-7.5c0-4.142 3.358-7.5 7.5-7.5s7.5 3.358 7.5 7.5zm42.5-7.5c-4.142 0-7.5 3.358-7.5 7.5 0 4.143 3.358 7.5 7.5 7.5s7.5-3.357 7.5-7.5c0-4.142-3.358-7.5-7.5-7.5zm-25 0c-4.142 0-7.5 3.358-7.5 7.5 0 4.143 3.358 7.5 7.5 7.5s7.5-3.357 7.5-7.5c0-4.142-3.358-7.5-7.5-7.5z" fill="#0280e3"/><path d="m330 322.144h-320c-5.523 0-10-4.477-10-10v-186.735h340v186.735c0 5.522-4.477 10-10 10z" fill="#fff5f5"/><path d="m22.174 322.144h-12.174c-5.523 0-10-4.477-10-10v-186.735h22.174z" fill="#bbe0fb"/><path d="m94 172h-70c-2.761 0-5-2.239-5-5v-5c0-2.761 2.239-5 5-5h70c2.761 0 5 2.239 5 5v5c0 2.761-2.239 5-5 5zm51 15h-61c-2.761 0-5 2.239-5 5v5c0 2.761 2.239 5 5 5h61c2.761 0 5-2.239 5-5v-5c0-2.761-2.239-5-5-5zm-10 90h-51c-2.761 0-5 2.239-5 5v5c0 2.761 2.239 5 5 5h51c2.761 0 5-2.239 5-5v-5c0-2.761-2.239-5-5-5zm-51-45h21c2.761 0 5-2.239 5-5v-5c0-2.761-2.239-5-5-5h-21c-2.761 0-5 2.239-5 5v5c0 2.761 2.239 5 5 5z" fill="#63bcfa"/><path d="m59 282v5c0 2.761-2.239 5-5 5h-30c-2.761 0-5-2.239-5-5v-5c0-2.761 2.239-5 5-5h30c2.761 0 5 2.239 5 5zm-5-65h-30c-2.761 0-5 2.239-5 5v5c0 2.761 2.239 5 5 5h30c2.761 0 5-2.239 5-5v-5c0-2.761-2.239-5-5-5z" fill="#fd4fb6"/><path d="m19 197v-5c0-2.761 2.239-5 5-5h30c2.761 0 5 2.239 5 5v5c0 2.761-2.239 5-5 5h-30c-2.761 0-5-2.239-5-5zm55 50h-50c-2.761 0-5 2.239-5 5v5c0 2.761 2.239 5 5 5h50c2.761 0 5-2.239 5-5v-5c0-2.761-2.239-5-5-5z" fill="#008a80"/><path d="m298.261 181.793h192.974c6.356 21.799 9.765 44.855 9.765 68.707 0 2.585-.04 5.162-.12 7.729h-306.097c-8.164 0-14.783-6.619-14.783-14.783v-83.827c0-4.083 3.309-7.392 7.391-7.392h92.099c4.622 0 8.758 2.867 10.381 7.194z" fill="#f5c02c"/><path d="m202.174 258.228h-7.391c-8.164 0-14.783-6.618-14.783-14.783v-83.827c0-4.082 3.309-7.391 7.391-7.391h14.782v106.001z" fill="#f19b0b"/><path d="m180 242.038h320.856c.095 2.809.144 5.63.144 8.462 0 75.672-34.307 143.331-88.216 188.272h-222.784c-5.523 0-10-4.477-10-10z" fill="#fc9302"/><path d="m202.174 438.772h-12.174c-5.523 0-10-4.477-10-10v-186.734h22.174z" fill="#f57e00"/><path d="m299.882 334.42c11.645 0 21.118-9.474 21.118-21.118v-21.778c0-11.645-9.473-21.118-21.118-21.118s-21.118 9.474-21.118 21.118v21.778c0 11.644 9.474 21.118 21.118 21.118zm-6.118-42.897c0-3.374 2.745-6.118 6.118-6.118s6.118 2.744 6.118 6.118v21.778c0 3.374-2.745 6.118-6.118 6.118-3.374 0-6.118-2.744-6.118-6.118zm67.963-12.657c0-4.143 3.358-7.5 7.5-7.5h10.065c4.142 0 7.5 3.357 7.5 7.5v47.093c0 4.143-3.358 7.5-7.5 7.5s-7.5-3.357-7.5-7.5v-39.593h-2.565c-4.142 0-7.5-3.357-7.5-7.5zm-115.103 55.554c11.645 0 21.118-9.474 21.118-21.118v-21.778c0-11.645-9.473-21.118-21.118-21.118s-21.118 9.474-21.118 21.118v21.778c-.001 11.644 9.473 21.118 21.118 21.118zm-6.119-42.897c0-3.374 2.745-6.118 6.118-6.118s6.118 2.744 6.118 6.118v21.778c0 3.374-2.745 6.118-6.118 6.118-3.374 0-6.118-2.744-6.118-6.118zm62.302 63.329v47.093c0 4.143-3.358 7.5-7.5 7.5s-7.5-3.357-7.5-7.5v-39.593h-2.565c-4.142 0-7.5-3.357-7.5-7.5s3.358-7.5 7.5-7.5h10.065c4.142 0 7.5 3.357 7.5 7.5zm-53.183-8.461c-11.645 0-21.118 9.474-21.118 21.118v21.778c0 11.645 9.474 21.118 21.118 21.118 11.645 0 21.118-9.474 21.118-21.118v-21.778c-.001-11.645-9.474-21.118-21.118-21.118zm6.117 42.896c0 3.374-2.745 6.118-6.118 6.118-3.374 0-6.118-2.744-6.118-6.118v-21.778c0-3.374 2.745-6.118 6.118-6.118s6.118 2.744 6.118 6.118zm90.589-55.828c-4.142 0-7.5-3.357-7.5-7.5v-39.593h-2.565c-4.142 0-7.5-3.357-7.5-7.5s3.358-7.5 7.5-7.5h10.065c4.142 0 7.5 3.357 7.5 7.5v47.093c0 4.143-3.358 7.5-7.5 7.5zm22.552 12.932c-11.645 0-21.118 9.474-21.118 21.118v21.778c0 11.645 9.474 21.118 21.118 21.118s21.118-9.473 21.118-21.118v-21.778c0-11.645-9.473-21.118-21.118-21.118zm6.118 42.896c0 3.374-2.745 6.118-6.118 6.118-3.374 0-6.118-2.744-6.118-6.118v-21.778c0-3.374 2.745-6.118 6.118-6.118s6.118 2.744 6.118 6.118zm-37.17-34.435v47.093c0 4.143-3.358 7.5-7.5 7.5s-7.5-3.357-7.5-7.5v-39.593h-2.565c-4.142 0-7.5-3.357-7.5-7.5s3.358-7.5 7.5-7.5h10.065c4.142 0 7.5 3.357 7.5 7.5z" fill="#fdbf43"/><path d="m472.053 234.976v26.549c0 1.535-.61 3.008-1.696 4.094l-8.188 8.188c-1.086 1.086-1.696 2.558-1.696 4.094v81.366c0 3.197-2.592 5.789-5.789 5.789h-11.579c-3.197 0-5.789-2.592-5.789-5.789v-3.391c0-1.535-.61-3.008-1.696-4.094l-8.188-8.188c-1.086-1.086-1.696-2.558-1.696-4.094v-104.524c0-3.197 2.592-5.789 5.789-5.789h34.737c3.199 0 5.791 2.592 5.791 5.789z" fill="#008a80"/><path d="m444.776 229.187h21.487c3.197 0 5.789 2.592 5.789 5.79v26.549c0 1.536-.61 3.008-1.696 4.094l-8.188 8.188c-1.086 1.085-1.696 2.558-1.696 4.094v81.366c0 2.914-2.152 5.324-4.954 5.729-2.801-.405-4.954-2.815-4.954-5.729v-8.392c0-1.535-.61-3.008-1.696-4.094l-8.188-8.188c-1.086-1.086-1.696-2.558-1.696-4.094v-99.523c.003-3.198 2.595-5.79 5.792-5.79z" fill="#01988c"/><path d="m491 159.713h-84.211c-5.523 0-10 4.477-10 10v72.631c0 5.523 4.477 10 10 10h84.211c5.523 0 10-4.477 10-10v-72.631c0-5.523-4.477-10-10-10zm-13.158 41.316c0 2.762-2.239 5-5 5h-47.895c-2.761 0-5-2.238-5-5v-13.158c0-2.761 2.239-5 5-5h47.895c2.761 0 5 2.239 5 5z" fill="#bbe0fb"/><path d="m501 169.713v72.631c0 5.523-4.477 10-10 10h-61.053c-5.523 0-10-4.477-10-10v-41.316c0 2.762 2.239 5 5 5h47.895c2.761 0 5-2.238 5-5v-13.158c0-2.761-2.239-5-5-5h-47.895c-2.761 0-5 2.239-5 5v-18.158c0-5.523 4.477-10 10-10h61.053c5.523.001 10 4.478 10 10.001z" fill="#e3f0fb"/><path d="m390 116.686c0 4.107-3.164 7.688-7.269 7.811-4.248.127-7.731-3.278-7.731-7.497v-9.21c0-2.761-2.239-5-5-5h-28.053l6.549 6.548c2.989 2.989 3.154 8.047.093 10.962-1.447 1.378-3.31 2.067-5.171 2.067-1.919 0-3.839-.732-5.304-2.196l-19.382-19.382c-2.929-2.93-2.929-7.678 0-10.607l19.381-19.382c2.984-2.982 7.855-2.927 10.769.166 2.816 2.989 2.522 7.758-.382 10.661l-6.163 6.163h32.699c8.299 0 15.021 6.739 15 15.039zm-7.5 17.814c-4.142 0-7.5 3.358-7.5 7.5s3.358 7.5 7.5 7.5c4.142 0 7.5-3.358 7.5-7.5s-3.358-7.5-7.5-7.5zm0 23c-4.142 0-7.5 3.358-7.5 7.5s3.358 7.5 7.5 7.5c4.142 0 7.5-3.358 7.5-7.5s-3.358-7.5-7.5-7.5z" fill="#fff5f5"/></g></svg>